<svg width="1362" height="177" viewBox="0 0 1362 177" fill="none" xmlns="http://www.w3.org/2000/svg">
<path d="M226.18 276.292L90.4399 276.292L56.8696 341L-14.6497 341L167.797 0.918658L247.101 0.918658L308.89 341L236.884 341L226.18 276.292ZM217.423 223.261L193.097 79.2493L118.172 223.261L217.423 223.261ZM542.335 1.40521C577.04 1.40521 603.312 9.35178 621.152 25.2449C638.991 40.8138 647.911 61.2478 647.911 86.5472C647.911 92.7098 647.424 99.0347 646.451 105.522C642.559 127.577 632.504 147.687 616.286 165.851C600.393 183.69 578.986 196.178 552.065 203.313L608.989 341L529.685 341L479.086 208.665L446.489 208.665L423.136 341L354.536 341L414.865 1.40521L542.335 1.40521ZM576.391 106.981C577.04 101.143 577.364 97.2507 577.364 95.3046C577.364 82.9793 573.472 73.411 565.688 66.5996C557.903 59.7883 546.065 56.3826 530.171 56.3826L473.248 56.3826L455.247 158.066L512.17 158.066C530.334 158.066 544.767 153.526 555.471 144.444C566.499 135.362 573.472 122.874 576.391 106.981ZM1096.79 1.40521L1036.95 341L968.348 341L1007.27 121.09L877.855 341L825.797 341L773.738 120.604L734.816 341L666.216 341L726.545 1.40521L803.903 1.40521L867.638 253.425L1019.43 1.40521L1096.79 1.40521ZM1223 54.4365L1207.43 142.498L1321.77 142.498L1312.52 195.042L1198.19 195.042L1182.13 286.996L1311.06 286.996L1301.33 341L1103.8 341L1164.13 0.918657L1361.18 0.918657L1351.93 54.4365L1223 54.4365Z" fill="black"/>
</svg>
