<svg width="39" height="39" viewBox="0 0 39 39" fill="none" xmlns="http://www.w3.org/2000/svg">
<path fill-rule="evenodd" clip-rule="evenodd" d="M20.5661 2.10352C10.666 2.10352 2.66406 9.90646 2.66406 19.5562C2.66406 27.2697 7.79076 33.8005 14.9051 36.1123C15.7927 36.2867 16.1191 35.7367 16.1191 35.2739C16.1191 34.8714 16.09 33.4852 16.09 32.0387C11.1109 33.0783 10.0735 29.9594 10.0735 29.9594C9.27309 27.936 8.08812 27.415 8.08812 27.415C6.45598 26.3463 8.20661 26.3463 8.20661 26.3463C10.0131 26.4626 10.9634 28.1372 10.9634 28.1372C12.562 30.7978 15.1421 30.0443 16.1795 29.5815C16.327 28.4547 16.801 27.6744 17.3063 27.2429C13.3333 26.8382 9.15459 25.3357 9.15459 18.6306C9.15459 16.7234 9.86558 15.1651 10.9924 13.951C10.8136 13.5173 10.192 11.7264 11.1713 9.32739C11.1713 9.32739 12.6827 8.86458 16.09 11.1183C17.5515 10.7363 19.0556 10.5425 20.5661 10.5414C22.0775 10.5414 23.618 10.7427 25.04 11.1183C28.4496 8.86458 29.9587 9.32739 29.9587 9.32739C30.938 11.7264 30.3165 13.5173 30.1376 13.951C31.2935 15.1628 31.9754 16.7234 31.9754 18.6306C31.9754 25.3357 27.7967 26.8091 23.7946 27.2429C24.4475 27.7906 25.0109 28.8303 25.0109 30.4781C25.0109 32.8189 24.9818 34.697 24.9818 35.2739C24.9818 35.7367 25.3083 36.2867 26.1959 36.1123C33.3102 33.8005 38.4369 27.2697 38.4369 19.5562C38.4659 9.90422 30.4327 2.10352 20.5661 2.10352Z" fill="black"/>
</svg>
