<svg width="152" height="58" viewBox="0 0 152 58" fill="none" xmlns="http://www.w3.org/2000/svg">
<path d="M60.2927 37.8326L49.4528 37.8326L46.772 43L41.0606 43L55.6304 15.8419L61.9634 15.8419L66.8977 43L61.1475 43L60.2927 37.8326ZM59.5934 33.5976L57.6508 22.0972L51.6674 33.5976L59.5934 33.5976ZM85.5401 15.8808C88.3116 15.8808 90.4096 16.5154 91.8342 17.7846C93.2588 19.0278 93.9711 20.6597 93.9711 22.68C93.9711 23.1721 93.9323 23.6772 93.8546 24.1953C93.5437 25.9566 92.7408 27.5625 91.4457 29.013C90.1765 30.4376 88.467 31.4348 86.3171 32.0047L90.8629 43L84.5299 43L80.4892 32.432L77.8861 32.432L76.0211 43L70.5429 43L75.3606 15.8808L85.5401 15.8808ZM88.2598 24.3118C88.3116 23.8456 88.3375 23.5348 88.3375 23.3794C88.3375 22.3951 88.0266 21.631 87.405 21.087C86.7834 20.5431 85.8379 20.2711 84.5687 20.2711L80.023 20.2711L78.5854 28.3914L83.1312 28.3914C84.5817 28.3914 85.7343 28.0287 86.5891 27.3035C87.4698 26.5782 88.0266 25.581 88.2598 24.3118ZM129.818 15.8808L125.039 43L119.561 43L122.669 25.4385L112.334 43L108.177 43L104.019 25.3997L100.911 43L95.433 43L100.251 15.8808L106.428 15.8808L111.518 36.0065L123.64 15.8808L129.818 15.8808ZM139.897 20.1157L138.653 27.1481L147.784 27.1481L147.046 31.3442L137.915 31.3442L136.633 38.6873L146.929 38.6873L146.152 43L130.378 43L135.195 15.8419L150.931 15.8419L150.193 20.1157L139.897 20.1157Z" fill="black"/>
<path fill-rule="evenodd" clip-rule="evenodd" d="M14.0241 27.6403L14.134 27.5L17.9746 27.7036L17.9022 27.7861C17.7384 27.9727 17.7285 28.2489 17.8786 28.4467L28.4122 42.33C28.6733 42.6741 28.4278 43.1685 27.9958 43.1685L20.3584 43.1685C20.1959 43.1685 20.0426 43.0929 19.9437 42.964L13.4799 34.5387C13.2793 34.2772 12.8899 34.2644 12.6725 34.512L5.22961 42.9906C5.13039 43.1037 4.98727 43.1685 4.83687 43.1685L1.7785 43.1685C1.32914 43.1685 1.08931 42.6389 1.38571 42.3011L10.7315 31.6519C10.7637 31.6152 10.7899 31.5751 10.8102 31.5328L12.0514 30.1572L12.7232 29.3001L21.1709 40.3108C21.2698 40.4397 21.423 40.5153 21.5855 40.5153L22.7391 40.5153C23.1711 40.5153 23.4165 40.0209 23.1554 39.6768L14.0241 27.6403Z" fill="black"/>
<path d="M25.8934 15.069L14.3716 29.9106L2.84981 15.069L25.8934 15.069Z" stroke="black" stroke-width="2.79081"/>
<rect x="13.1538" y="15.6223" width="2.43586" height="12.6665" fill="black"/>
</svg>
