<svg width="29" height="31" viewBox="0 0 29 31" fill="none" xmlns="http://www.w3.org/2000/svg">
<path fill-rule="evenodd" clip-rule="evenodd" d="M14.0241 14.6403L14.134 14.5L17.9746 14.7036L17.9022 14.7861C17.7384 14.9727 17.7285 15.2489 17.8786 15.4467L28.4122 29.33C28.6733 29.6741 28.4278 30.1685 27.9958 30.1685L20.3584 30.1685C20.1959 30.1685 20.0426 30.0929 19.9437 29.964L13.4799 21.5387C13.2793 21.2772 12.8899 21.2644 12.6725 21.512L5.22961 29.9906C5.13039 30.1037 4.98727 30.1685 4.83687 30.1685L1.7785 30.1685C1.32914 30.1685 1.08931 29.6389 1.38571 29.3011L10.7315 18.6519C10.7637 18.6152 10.7899 18.5751 10.8102 18.5328L12.0514 17.1572L12.7232 16.3001L21.1709 27.3108C21.2698 27.4397 21.423 27.5153 21.5855 27.5153L22.7391 27.5153C23.1711 27.5153 23.4165 27.0209 23.1554 26.6768L14.0241 14.6403Z" fill="black"/>
<path d="M25.8934 2.06898L14.3716 16.9106L2.84981 2.06899L25.8934 2.06898Z" stroke="black" stroke-width="2.79081"/>
<rect x="13.1538" y="2.62231" width="2.43586" height="12.6665" fill="black"/>
</svg>
