<svg width="51" height="51" viewBox="0 0 51 51" fill="none" xmlns="http://www.w3.org/2000/svg">
<path d="M34.4133 19.552C35.5749 18.3904 36.7281 15.68 31.8881 18.9712C27.3669 22.0828 22.8149 25.1497 18.233 28.1714C17.5353 28.4869 16.781 28.6581 16.0155 28.6747C15.2499 28.6913 14.4889 28.5531 13.7781 28.2682C10.8742 27.397 7.48405 26.2354 7.48405 26.2354C7.48405 26.2354 5.16927 24.7813 9.13175 23.2325C9.13175 23.2325 25.8844 16.3576 31.6945 13.9355C33.9209 12.9675 41.4734 9.86988 41.4734 9.86988C41.4734 9.86988 44.9603 8.51258 44.6699 11.8059C44.5731 13.1611 43.7987 17.9085 43.0243 23.0389C41.8606 30.301 40.6022 38.2428 40.6022 38.2428C40.6022 38.2428 40.4086 40.4691 38.763 40.8563C37.0014 40.8265 35.2994 40.2138 33.923 39.1139C33.5358 38.8235 26.6609 34.4655 24.142 32.3359C23.8858 32.1623 23.6776 31.9267 23.5369 31.6511C23.3962 31.3754 23.3274 31.0687 23.3371 30.7594C23.3468 30.45 23.4345 30.1482 23.5922 29.8818C23.7498 29.6155 23.9723 29.3934 24.2388 29.2362C27.6937 26.0753 31.0858 22.8466 34.4133 19.552Z" fill="black"/>
</svg>
