<svg width="20" height="19" viewBox="0 0 20 19" fill="none" xmlns="http://www.w3.org/2000/svg">
<path fill-rule="evenodd" clip-rule="evenodd" d="M9.76783 0.489014C4.49162 0.489014 0.227051 4.64754 0.227051 9.79029C0.227051 13.9011 2.95929 17.3817 6.75081 18.6137C7.22386 18.7067 7.39782 18.4136 7.39782 18.1669C7.39782 17.9524 7.38233 17.2137 7.38233 16.4427C4.72874 16.9968 4.17586 15.3346 4.17586 15.3346C3.74928 14.2562 3.11776 13.9786 3.11776 13.9786C2.24793 13.409 3.18091 13.409 3.18091 13.409C4.14369 13.471 4.6501 14.3635 4.6501 14.3635C5.50206 15.7814 6.87711 15.3799 7.43 15.1332C7.50864 14.5327 7.76125 14.1168 8.03054 13.8868C5.91315 13.6712 3.68613 12.8705 3.68613 9.29698C3.68613 8.28059 4.06505 7.45007 4.66559 6.80306C4.57027 6.5719 4.23901 5.61746 4.76091 4.33893C4.76091 4.33893 5.56641 4.09227 7.38233 5.29336C8.16118 5.08982 8.96282 4.98651 9.76783 4.98594C10.5733 4.98594 11.3943 5.09318 12.1521 5.29336C13.9692 4.09227 14.7735 4.33893 14.7735 4.33893C15.2954 5.61746 14.9642 6.5719 14.8689 6.80306C15.4849 7.44888 15.8483 8.28059 15.8483 9.29698C15.8483 12.8705 13.6213 13.6557 11.4884 13.8868C11.8364 14.1788 12.1366 14.7329 12.1366 15.611C12.1366 16.8586 12.1211 17.8595 12.1211 18.1669C12.1211 18.4136 12.2951 18.7067 12.7682 18.6137C16.5597 17.3817 19.2919 13.9011 19.2919 9.79029C19.3074 4.64635 15.0262 0.489014 9.76783 0.489014Z" fill="white"/>
</svg>
