<svg width="29" height="29" viewBox="0 0 29 29" fill="none" xmlns="http://www.w3.org/2000/svg">
<path fill-rule="evenodd" clip-rule="evenodd" d="M13.7883 13.7323L13.8961 13.5947L17.6724 13.7949L17.6014 13.8758C17.4404 14.0593 17.4307 14.3308 17.5783 14.5253L27.9351 28.1757C28.1918 28.5141 27.9505 29.0002 27.5258 29.0002H20.0164C19.8567 29.0002 19.706 28.9258 19.6087 28.7991L13.2533 20.5151C13.0562 20.2581 12.6732 20.2454 12.4595 20.4889L5.14145 28.8253C5.04389 28.9364 4.90318 29.0002 4.7553 29.0002H1.74824C1.30641 29.0002 1.0706 28.4795 1.36203 28.1474L10.551 17.6768C10.5828 17.6406 10.6087 17.601 10.6286 17.5593L11.8485 16.2073L12.5092 15.3643L20.8153 26.1904C20.9126 26.3171 21.0632 26.3914 21.223 26.3914H22.3572C22.7819 26.3914 23.0233 25.9054 22.7666 25.567L13.7883 13.7323Z" fill="white"/>
<path d="M2.802 1.372L25.459 1.37199L14.1305 15.9647L2.802 1.372Z" stroke="white" stroke-width="2.744"/>
<rect x="12.9326" y="1.9165" width="2.395" height="12.454" fill="white"/>
</svg>
