<svg width="26" height="22" viewBox="0 0 26 22" fill="none" xmlns="http://www.w3.org/2000/svg">
<path d="M18.832 7.23222C19.614 6.45022 20.3903 4.62555 17.132 6.84122C14.0882 8.93602 11.0238 11.0007 7.93925 13.0349C7.46954 13.2473 6.96174 13.3625 6.44636 13.3737C5.93098 13.3849 5.41866 13.2918 4.94016 13.1001C2.98516 12.5136 0.702914 11.7316 0.702914 11.7316C0.702914 11.7316 -0.85542 10.7526 1.81216 9.70997C1.81216 9.70997 13.0902 5.08172 17.0017 3.45114C18.5005 2.79947 23.5849 0.714138 23.5849 0.714138C23.5849 0.714138 25.9323 -0.199612 25.7368 2.01747C25.6717 2.9298 25.1503 6.1258 24.629 9.57964C23.8456 14.4686 22.9984 19.8151 22.9984 19.8151C22.9984 19.8151 22.8681 21.3139 21.7602 21.5746C20.5743 21.5545 19.4285 21.142 18.5019 20.4016C18.2412 20.2061 13.613 17.2721 11.9172 15.8385C11.7448 15.7216 11.6046 15.563 11.5099 15.3775C11.4151 15.1919 11.3688 14.9854 11.3753 14.7772C11.3819 14.5689 11.4409 14.3657 11.5471 14.1864C11.6532 14.0071 11.803 13.8576 11.9824 13.7517C14.3082 11.6238 16.5919 9.45019 18.832 7.23222Z" fill="white"/>
</svg>
