<svg width="92" height="18" viewBox="0 0 92 18" fill="none" xmlns="http://www.w3.org/2000/svg">
<g clip-path="url(#clip0_33_1864)">
<mask id="mask0_33_1864" style="mask-type:luminance" maskUnits="userSpaceOnUse" x="0" y="0" width="92" height="19">
<path d="M0.430176 0.189453H91.8502V18.1895H0.430176V0.189453Z" fill="white"/>
</mask>
<g mask="url(#mask0_33_1864)">
<path d="M11.0302 3.56945L5.73018 6.94945L11.0302 10.3395L5.73018 13.7195L0.430176 10.3195L5.73018 6.93945L0.430176 3.56945L5.73018 0.189453L11.0302 3.56945ZM5.70018 14.8095L11.0002 11.4295L16.3002 14.8095L11.0002 18.1895L5.70018 14.8095ZM11.0302 10.3095L16.3302 6.93945L11.0302 3.56945L16.3002 0.189453L21.6002 3.56945L16.3002 6.94945L21.6002 10.3395L16.3002 13.7195L11.0302 10.3195V10.3095ZM25.7702 3.56945H30.0502C32.7902 3.56945 35.0502 5.14945 35.0502 8.76945V9.51945C35.0502 13.1595 32.9302 14.7995 30.1402 14.7995H25.7702V3.56945ZM28.1702 5.60945V12.7495H30.0002C31.5502 12.7495 32.6002 11.7395 32.6002 9.47945V8.87945C32.6002 6.62945 31.5002 5.60945 29.9202 5.60945H28.1602H28.1702ZM36.3202 5.71945H38.2402L38.5402 7.82945C38.9102 6.39945 39.8402 5.62945 41.5402 5.62945H42.1302V8.04945H41.1402C39.2002 8.04945 38.7202 8.72945 38.7202 10.6495V14.8295H36.3502V5.72945H36.3202V5.71945ZM42.6102 10.4595V10.1895C42.6102 7.14945 44.5502 5.48945 47.2102 5.48945C49.9102 5.48945 51.8102 7.14945 51.8102 10.1895V10.4495C51.8102 13.4395 49.9602 15.0495 47.2102 15.0495C44.2702 15.0195 42.6102 13.4495 42.6102 10.4495V10.4595ZM49.3802 10.4295V10.1895C49.3802 8.48945 48.5302 7.48945 47.1802 7.48945C45.8502 7.48945 44.9802 8.41945 44.9802 10.1895V10.4195C44.9802 12.0495 45.8202 12.9895 47.1802 12.9895C48.5302 12.9595 49.3802 12.0495 49.3802 10.4195V10.4295ZM53.0502 5.72945H55.0202L55.2502 7.42945C55.4835 6.83429 55.8973 6.32714 56.4336 5.97919C56.9698 5.63125 57.6016 5.45999 58.2402 5.48945C60.5502 5.48945 62.0802 7.15945 62.0802 10.2395V10.4895C62.0802 13.4895 60.3802 15.0595 58.2402 15.0595C56.8002 15.0595 55.8202 14.4095 55.3402 13.3695V17.9695H53.0202L53.0502 5.71945V5.72945ZM59.6702 10.4295V10.2295C59.6702 8.41945 58.7402 7.52945 57.5002 7.52945C56.1702 7.52945 55.3002 8.52945 55.3002 10.2295V10.3995C55.3002 12.0095 56.1402 13.0195 57.4702 13.0195C58.8302 12.9995 59.6702 12.1195 59.6702 10.4195V10.4295ZM65.5702 13.1395L65.3702 14.8095H63.3502V2.67945H65.6602V7.32945C66.1702 6.13945 67.1902 5.48945 68.6202 5.48945C70.8002 5.51945 72.4102 7.01945 72.4102 10.0395V10.3195C72.4102 13.3395 70.8802 15.0595 68.5702 15.0595C67.0402 15.0295 66.0502 14.3195 65.5702 13.1395ZM69.9702 10.3195V10.0895C69.9702 8.42945 69.0702 7.48945 67.8002 7.48945C66.5002 7.48945 65.6002 8.53945 65.6002 10.1195V10.3195C65.6002 12.0095 66.4702 12.9995 67.7702 12.9995C69.1702 12.9995 69.9702 12.1295 69.9702 10.3195ZM73.4202 10.4595V10.1895C73.4202 7.14945 75.3702 5.48945 78.0202 5.48945C80.7202 5.48945 82.6202 7.14945 82.6202 10.1895V10.4495C82.6202 13.4395 80.7502 15.0495 78.0202 15.0495C75.0902 15.0195 73.4202 13.4495 73.4202 10.4495V10.4595ZM80.2202 10.4295V10.1895C80.2202 8.48945 79.3602 7.48945 78.0202 7.48945C76.6902 7.48945 75.8102 8.41945 75.8102 10.1895V10.4195C75.8102 12.0495 76.6602 12.9895 78.0102 12.9895C79.3702 12.9595 80.2102 12.0495 80.2102 10.4195L80.2202 10.4295ZM85.7202 10.0895L82.5202 5.71945H85.2602L87.1002 8.44945L88.9602 5.71945H91.6602L88.4302 10.0595L91.8402 14.8095H89.1602L87.0802 11.7895L85.0502 14.8095H82.2502L85.7202 10.0895Z" fill="black"/>
</g>
</g>
<defs>
<clipPath id="clip0_33_1864">
<rect width="92" height="18" fill="white"/>
</clipPath>
</defs>
</svg>
