<svg width="71" height="22" viewBox="0 0 71 22" fill="none" xmlns="http://www.w3.org/2000/svg">
<g clip-path="url(#clip0_33_1817)">
<mask id="mask0_33_1817" style="mask-type:luminance" maskUnits="userSpaceOnUse" x="0" y="0" width="71" height="23">
<path d="M0.360098 0.189453H70.8601V22.1895H0.350098L0.360098 0.189453Z" fill="white"/>
</mask>
<g mask="url(#mask0_33_1817)">
<path d="M37.5101 5.71945C37.5101 6.09871 37.3595 6.46244 37.0913 6.73062C36.8231 6.99879 36.4594 7.14945 36.0801 7.14945C35.7009 7.14945 35.3372 6.99879 35.069 6.73062C34.8008 6.46244 34.6501 6.09871 34.6501 5.71945C34.6501 4.91945 35.2701 4.28945 36.0801 4.28945C36.9001 4.30945 37.5101 4.94945 37.5101 5.71945ZM31.6101 8.59945V8.94945C31.6101 8.94945 30.9301 8.06945 29.4801 8.06945C28.9089 8.06101 28.342 8.16863 27.8136 8.38578C27.2853 8.60294 26.8065 8.9251 26.4063 9.33276C26.0061 9.74041 25.6929 10.2251 25.4856 10.7574C25.2782 11.2897 25.1811 11.8585 25.2001 12.4295C25.1811 13.0004 25.2782 13.5692 25.4856 14.1015C25.6929 14.6338 26.0061 15.1185 26.4063 15.5261C26.8065 15.9338 27.2853 16.256 27.8136 16.4731C28.342 16.6903 28.9089 16.7979 29.4801 16.7895C30.9501 16.7895 31.6101 15.8895 31.6101 15.8895V16.2695C31.6101 16.4395 31.7401 16.5695 31.9201 16.5695H33.7001V8.28945H31.9201C31.7401 8.28945 31.6201 8.44945 31.6201 8.59945H31.6101ZM31.6101 13.9095C31.2801 14.3895 30.6201 14.8095 29.8301 14.8095C28.4201 14.8095 27.3401 13.9295 27.3401 12.4295C27.3401 10.9295 28.4201 10.0595 29.8301 10.0595C30.6001 10.0595 31.3001 10.4995 31.6101 10.9595V13.9095ZM35.0301 8.28945H37.1401V16.5695H35.0301V8.28945ZM66.6101 8.06945C65.1501 8.06945 64.4701 8.94945 64.4701 8.94945V4.30945H62.3601V16.5695H64.1401C64.3201 16.5695 64.4401 16.4195 64.4401 16.2695V15.8895C64.4401 15.8895 65.1301 16.7895 66.5801 16.7895C68.9801 16.7895 70.8601 14.9395 70.8601 12.4295C70.879 11.8611 70.7828 11.2947 70.5773 10.7645C70.3718 10.2342 70.0613 9.75093 69.6643 9.3437C69.2674 8.93647 68.7922 8.61367 68.2674 8.3947C67.7425 8.17573 67.1788 8.0651 66.6101 8.06945ZM66.2501 14.7895C65.4401 14.7895 64.8001 14.3695 64.4701 13.8895V10.9395C64.8001 10.4995 65.5001 10.0395 66.2501 10.0395C67.6601 10.0395 68.7501 10.9095 68.7501 12.4095C68.7501 13.9095 67.6601 14.7895 66.2501 14.7895ZM61.2501 11.6595V16.5995H59.1401V11.8995C59.1401 10.5395 58.7001 9.98945 57.5101 9.98945C56.8701 9.98945 56.2101 10.3195 55.7901 10.7995V16.5695H53.6801V8.28945H55.3501C55.5301 8.28945 55.6601 8.44945 55.6601 8.59945V8.94945C55.9548 8.6563 56.3066 8.42689 56.6936 8.2755C57.0807 8.12411 57.4948 8.05397 57.9101 8.06945C58.8301 8.06945 59.6101 8.33945 60.2101 8.86945C60.9701 9.47945 61.2501 10.2695 61.2501 11.6695V11.6595ZM48.5501 8.06945C47.0901 8.06945 46.4101 8.94945 46.4101 8.94945V4.30945H44.3001V16.5695H46.0801C46.2601 16.5695 46.3801 16.4195 46.3801 16.2695V15.8895C46.3801 15.8895 47.0801 16.7895 48.5301 16.7895C50.9301 16.7895 52.8001 14.9395 52.8001 12.4295C52.8219 11.8604 52.7276 11.2928 52.5232 10.7612C52.3187 10.2297 52.0083 9.74527 51.6107 9.33745C51.2132 8.92963 50.7369 8.60692 50.2107 8.38894C49.6846 8.17096 49.1196 8.06226 48.5501 8.06945ZM48.2001 14.7895C47.3801 14.7895 46.7401 14.3695 46.4101 13.8895V10.9395C46.7401 10.4995 47.4501 10.0395 48.2001 10.0395C49.6001 10.0395 50.6801 10.9095 50.6801 12.4095C50.6801 13.9095 49.6001 14.7895 48.2001 14.7895ZM42.4701 8.06945C43.1101 8.06945 43.4401 8.17945 43.4401 8.17945V10.1395C43.4401 10.1395 41.6801 9.53945 40.5801 10.7995V16.5995H38.4601V8.28945H40.2401C40.4201 8.28945 40.5501 8.43945 40.5501 8.58945V8.93945C41.0568 8.41521 41.7423 8.10102 42.4701 8.05945V8.06945ZM20.5001 15.8295C20.4001 15.5595 20.2801 15.2795 20.1701 15.0295L19.6701 13.9095L19.6401 13.8895C18.1201 10.5895 16.5001 7.23945 14.7801 3.92945L14.7101 3.79945L14.1801 2.76945C13.9601 2.36945 13.7401 1.94945 13.3901 1.55945C13.0589 1.135 12.6358 0.791181 12.1525 0.553882C11.6693 0.316583 11.1385 0.191982 10.6001 0.189453C9.50014 0.189453 8.51014 0.669453 7.78014 1.50945C7.45014 1.90945 7.21014 2.32945 6.99014 2.71945L6.46014 3.75945L6.40014 3.88945C4.70014 7.18945 3.05014 10.5395 1.53014 13.8395L1.51014 13.8895L1.01014 15.0095C0.890136 15.2495 0.780136 15.5095 0.670136 15.8095C0.37602 16.5653 0.283376 17.3846 0.401286 18.187C0.519196 18.9894 0.843612 19.7474 1.34273 20.3867C1.84184 21.026 2.49852 21.5246 3.24838 21.8336C3.99824 22.1426 4.81554 22.2515 5.62014 22.1495C6.39644 22.0499 7.14469 21.7948 7.82014 21.3995C8.73014 20.8995 9.59014 20.1595 10.5601 19.0995C11.3457 20.0027 12.2666 20.7786 13.2901 21.3995C14.1327 21.8907 15.0852 22.1624 16.0601 22.1895C17.1875 22.1963 18.2792 21.7951 19.1339 21.0599C19.9886 20.3247 20.5484 19.3052 20.7101 18.1895C20.8901 17.4095 20.8001 16.6395 20.5101 15.8295H20.5001ZM10.5701 16.9695C9.54203 15.7796 8.78458 14.3807 8.35014 12.8695C8.24014 12.3695 8.22014 11.9295 8.28014 11.5295C8.33014 11.1795 8.46014 10.8695 8.63014 10.6095C9.05014 10.0095 9.76013 9.63945 10.5701 9.63945C11.3901 9.63945 12.1101 9.98945 12.5101 10.6095C12.6901 10.8695 12.8101 11.1795 12.8601 11.5295C12.9301 11.9295 12.9101 12.3895 12.8001 12.8695C12.353 14.3776 11.5931 15.7745 10.5701 16.9695ZM19.3601 18.0095C19.2804 18.5752 19.0537 19.1102 18.7028 19.5611C18.3519 20.012 17.889 20.3631 17.3601 20.5795C16.8301 20.7995 16.2601 20.8695 15.6801 20.7995C15.0902 20.7261 14.5218 20.5321 14.0101 20.2295C13.2101 19.7895 12.4201 19.1095 11.5001 18.0895C12.9501 16.3095 13.8301 14.6895 14.1601 13.2295C14.3201 12.5395 14.3401 11.9295 14.2701 11.3595C14.1874 10.8202 13.9821 10.307 13.6701 9.85945C13.3208 9.36458 12.8557 8.96275 12.3153 8.68907C11.7749 8.4154 11.1758 8.2782 10.5701 8.28945C9.29014 8.28945 8.15014 8.88945 7.47014 9.85945C7.16014 10.2995 6.96014 10.7995 6.87014 11.3595C6.78014 11.9295 6.81014 12.5595 6.98014 13.2295C7.31014 14.6795 8.22014 16.3295 9.65014 18.1195C8.9382 18.9646 8.08981 19.6845 7.14014 20.2495C6.56014 20.5795 6.01014 20.7495 5.46014 20.8195C4.60085 20.9361 3.73042 20.7066 3.0403 20.1815C2.35018 19.6564 1.8969 18.8787 1.78014 18.0195C1.72014 17.4795 1.76014 16.9195 1.98014 16.3095C2.05014 16.0895 2.16014 15.8695 2.27014 15.6095C2.42014 15.2495 2.60014 14.8795 2.77014 14.5095L2.80014 14.4595C4.32014 11.1795 5.95014 7.82945 7.64014 4.56945L7.71014 4.43945L8.24014 3.42945C8.41014 3.06945 8.61014 2.73945 8.85014 2.45945C9.066 2.2011 9.33595 1.99328 9.64093 1.85068C9.9459 1.70808 10.2785 1.63416 10.6151 1.63416C10.9518 1.63416 11.2844 1.70808 11.5893 1.85068C11.8943 1.99328 12.1643 2.2011 12.3801 2.45945C12.6201 2.73945 12.8201 3.06945 12.9901 3.42945L13.5201 4.43945L13.5901 4.56945C15.2601 7.84945 16.8901 11.1995 18.4101 14.4795V14.4995C18.5901 14.8595 18.7401 15.2495 18.9101 15.5995C19.0301 15.8695 19.1401 16.0895 19.2101 16.3095C19.3801 16.8795 19.4501 17.4295 19.3601 18.0095Z" fill="black"/>
</g>
</g>
<defs>
<clipPath id="clip0_33_1817">
<rect width="71" height="22" fill="white"/>
</clipPath>
</defs>
</svg>
