<svg width="91" height="18" viewBox="0 0 91 18" fill="none" xmlns="http://www.w3.org/2000/svg">
<g clip-path="url(#clip0_33_1824)">
<mask id="mask0_33_1824" style="mask-type:luminance" maskUnits="userSpaceOnUse" x="0" y="0" width="91" height="19">
<path d="M0 0.189453H90.91V18.1895H0V0.189453Z" fill="white"/>
</mask>
<g mask="url(#mask0_33_1824)">
<path fill-rule="evenodd" clip-rule="evenodd" d="M88.6201 13.8696C88.6701 14.4996 89.1701 15.2896 90.0401 15.2896H90.5501C90.7501 15.2896 90.9101 15.1296 90.9101 14.9396V3.75957C90.905 3.6676 90.8648 3.58109 90.7979 3.51785C90.7309 3.4546 90.6422 3.41943 90.5501 3.41957H88.9801C88.888 3.41943 88.7993 3.4546 88.7324 3.51785C88.6654 3.58109 88.6252 3.6676 88.6201 3.75957V4.65957C88.117 4.09904 87.4949 3.65814 86.7993 3.36918C86.1037 3.08023 85.3523 2.95052 84.6001 2.98957C82.9346 2.98957 81.3372 3.65121 80.1595 4.82894C78.9818 6.00667 78.3201 7.60401 78.3201 9.26957C78.3201 10.9351 78.9818 12.5325 80.1595 13.7102C81.3372 14.8879 82.9346 15.5496 84.6001 15.5496C86.1201 15.5496 87.7801 14.9496 88.6001 13.8696H88.6201ZM84.6201 13.3496C82.4101 13.3496 80.6201 11.5196 80.6201 9.26957C80.6135 8.73819 80.7118 8.21072 80.9094 7.71739C81.107 7.22406 81.3999 6.77455 81.7715 6.39462C82.1431 6.01469 82.5859 5.7118 83.0748 5.5033C83.5636 5.2948 84.0887 5.18479 84.6201 5.17957C86.8201 5.17957 88.6001 7.00957 88.6001 9.26957C88.6108 10.3393 88.1967 11.3697 87.4487 12.1346C86.7007 12.8994 85.6799 13.3364 84.6101 13.3496H84.6201ZM76.3401 14.2496V8.46957C76.3401 5.20957 74.2801 3.00957 71.0101 3.00957C69.4401 3.00957 68.1601 3.90957 67.7101 4.69957C67.6101 4.08957 67.2901 3.44957 66.2901 3.44957H65.7801C65.5801 3.44957 65.4201 3.60957 65.4201 3.80957V14.9796C65.4301 15.1796 65.5901 15.3196 65.7801 15.3196H67.4201L67.4501 15.3096L67.4901 15.2896L67.5301 15.2696H67.5501C67.5645 15.2573 67.5778 15.2439 67.5901 15.2296C67.6567 15.167 67.6962 15.0809 67.7001 14.9896H67.7101V8.38957C67.7101 7.97328 67.7921 7.56107 67.9514 7.17646C68.1107 6.79186 68.3442 6.4424 68.6386 6.14804C68.933 5.85368 69.2824 5.62018 69.667 5.46087C70.0516 5.30156 70.4638 5.21957 70.8801 5.21957C71.2964 5.21957 71.7086 5.30156 72.0932 5.46087C72.4778 5.62018 72.8273 5.85368 73.1216 6.14804C73.416 6.4424 73.6495 6.79186 73.8088 7.17646C73.9681 7.56107 74.0501 7.97328 74.0501 8.38957V14.9796C74.0601 15.1796 74.2201 15.3196 74.4101 15.3196H76.0501L76.0801 15.3096L76.1201 15.2896C76.1301 15.2896 76.1401 15.2896 76.1501 15.2696H76.1801L76.2201 15.2296C76.2859 15.1664 76.3252 15.0806 76.3301 14.9896H76.3401V14.2496ZM59.9401 13.8696C60.0001 14.4996 60.5001 15.2896 61.3701 15.2896H61.8701C62.0701 15.2896 62.2301 15.1296 62.2301 14.9396V3.75957C62.225 3.6676 62.1848 3.58109 62.1179 3.51785C62.0509 3.4546 61.9622 3.41943 61.8701 3.41957H60.3001C60.208 3.41943 60.1193 3.4546 60.0524 3.51785C59.9854 3.58109 59.9452 3.6676 59.9401 3.75957V4.65957C59.4381 4.10039 58.8176 3.66029 58.1239 3.37138C57.4301 3.08248 56.6807 2.95203 55.9301 2.98957C54.2646 2.98957 52.6672 3.65121 51.4895 4.82894C50.3118 6.00667 49.6501 7.60401 49.6501 9.26957C49.6501 10.9351 50.3118 12.5325 51.4895 13.7102C52.6672 14.8879 54.2646 15.5496 55.9301 15.5496C57.4501 15.5496 59.1201 14.9496 59.9401 13.8696ZM55.9401 13.3496C53.7401 13.3496 51.9401 11.5196 51.9401 9.26957C51.9335 8.73819 52.0318 8.21072 52.2294 7.71739C52.427 7.22406 52.7199 6.77455 53.0915 6.39462C53.4631 6.01469 53.9059 5.7118 54.3948 5.5033C54.8836 5.2948 55.4087 5.18479 55.9401 5.17957C58.1401 5.17957 59.9301 7.00957 59.9301 9.26957C59.9354 9.80012 59.8361 10.3265 59.638 10.8187C59.4398 11.3109 59.1466 11.7592 58.7752 12.1381C58.4037 12.5169 57.9613 12.8189 57.4731 13.0268C56.985 13.2347 56.4607 13.3443 55.9301 13.3496H55.9401ZM40.3401 12.2696C41.304 12.9581 42.4556 13.335 43.6401 13.3496C44.6901 13.3496 45.7801 12.8096 45.7801 11.8496C45.7801 10.5896 43.4101 10.3896 41.9301 9.88957C40.4301 9.38957 39.1601 8.33957 39.1601 6.64957C39.1601 4.04957 41.4601 2.98957 43.6201 2.98957C44.9801 2.98957 46.3901 3.43957 47.3001 4.07957C47.6101 4.31957 47.4201 4.58957 47.4201 4.58957L46.5501 5.83957C46.4501 5.97957 46.2801 6.09957 46.0401 5.93957C45.7901 5.78957 44.9301 5.17957 43.6201 5.17957C42.3001 5.17957 41.5201 5.78957 41.5201 6.53957C41.5201 7.43957 42.5401 7.72957 43.7401 8.03957C45.8401 8.59957 48.1401 9.27957 48.1401 11.8596C48.1401 14.1396 46.0001 15.5596 43.6401 15.5596C41.8601 15.5596 40.3401 15.0396 39.0601 14.0996C38.7901 13.8396 38.9801 13.5996 38.9801 13.5996L39.8501 12.3496C40.0201 12.1196 40.2501 12.1996 40.3501 12.2696H40.3401ZM34.2901 13.8696C34.3401 14.4996 34.8401 15.2896 35.7101 15.2896H36.2201C36.4201 15.2896 36.5801 15.1296 36.5801 14.9396V3.75957C36.575 3.6676 36.5348 3.58109 36.4679 3.51785C36.4009 3.4546 36.3122 3.41943 36.2201 3.41957H34.6501C34.558 3.41943 34.4693 3.4546 34.4024 3.51785C34.3354 3.58109 34.2952 3.6676 34.2901 3.75957V4.65957C33.7881 4.10039 33.1676 3.66029 32.4739 3.37138C31.7801 3.08248 31.0307 2.95203 30.2801 2.98957C28.6146 2.98957 27.0172 3.65121 25.8395 4.82894C24.6618 6.00667 24.0001 7.60401 24.0001 9.26957C24.0001 10.9351 24.6618 12.5325 25.8395 13.7102C27.0172 14.8879 28.6146 15.5496 30.2801 15.5496C31.8001 15.5496 33.4601 14.9496 34.2801 13.8696H34.2901ZM30.2901 13.3496C28.0801 13.3496 26.2901 11.5196 26.2901 9.26957C26.2835 8.73819 26.3818 8.21072 26.5794 7.71739C26.777 7.22406 27.0699 6.77455 27.4415 6.39462C27.8131 6.01469 28.2559 5.7118 28.7448 5.5033C29.2336 5.2948 29.7587 5.18479 30.2901 5.17957C32.4901 5.17957 34.2801 7.00957 34.2801 9.26957C34.2854 9.80012 34.1861 10.3265 33.988 10.8187C33.7898 11.3109 33.4966 11.7592 33.1252 12.1381C32.7537 12.5169 32.3113 12.8189 31.8231 13.0268C31.335 13.2347 30.8107 13.3443 30.2801 13.3496H30.2901ZM15.2001 9.68957C14.0796 9.68957 13.0049 10.1347 12.2126 10.927C11.4202 11.7194 10.9751 12.794 10.9751 13.9146C10.9751 15.0351 11.4202 16.1098 12.2126 16.9021C13.0049 17.6944 14.0796 18.1396 15.2001 18.1396C16.3207 18.1396 17.3953 17.6944 18.1876 16.9021C18.98 16.1098 19.4251 15.0351 19.4251 13.9146C19.4251 12.794 18.98 11.7194 18.1876 10.927C17.3953 10.1347 16.3207 9.68957 15.2001 9.68957ZM4.22012 9.68957C3.09958 9.68957 2.02493 10.1347 1.23259 10.927C0.44025 11.7194 -0.00488281 12.794 -0.00488281 13.9146C-0.00488281 15.0351 0.44025 16.1098 1.23259 16.9021C2.02493 17.6944 3.09958 18.1396 4.22012 18.1396C5.33933 18.1396 6.4127 17.695 7.20411 16.9036C7.99551 16.1122 8.44012 15.0388 8.44012 13.9196C8.44012 12.8004 7.99551 11.727 7.20411 10.9356C6.4127 10.1442 5.33933 9.69957 4.22012 9.69957V9.68957ZM13.9401 4.40957C13.9401 5.53011 13.495 6.60476 12.7026 7.3971C11.9103 8.18944 10.8357 8.63457 9.71512 8.63457C8.59458 8.63457 7.51993 8.18944 6.72759 7.3971C5.93525 6.60476 5.49012 5.53011 5.49012 4.40957C5.49012 3.28903 5.93525 2.21439 6.72759 1.42204C7.51993 0.629703 8.59458 0.18457 9.71512 0.18457C10.8357 0.18457 11.9103 0.629703 12.7026 1.42204C13.495 2.21439 13.9401 3.28903 13.9401 4.40957Z" fill="black"/>
</g>
</g>
<defs>
<clipPath id="clip0_33_1824">
<rect width="91" height="18" fill="white"/>
</clipPath>
</defs>
</svg>
