<svg width="146" height="18" viewBox="0 0 146 18" fill="none" xmlns="http://www.w3.org/2000/svg">
<g clip-path="url(#clip0_33_1831)">
<mask id="mask0_33_1831" style="mask-type:luminance" maskUnits="userSpaceOnUse" x="0" y="0" width="146" height="19">
<path d="M0.22998 0.189453H145.4V18.1895H0.22998V0.189453Z" fill="white"/>
</mask>
<g mask="url(#mask0_33_1831)">
<path d="M5.50991 8.38946C5.45753 8.31909 5.38756 8.26373 5.30702 8.22895C5.22647 8.19418 5.1382 8.1812 5.05106 8.19133C4.96392 8.20147 4.88097 8.23435 4.81056 8.28668C4.74015 8.33901 4.68474 8.40895 4.64991 8.48946L0.299909 17.2095C0.258723 17.2886 0.238602 17.3771 0.241482 17.4662C0.244361 17.5554 0.270144 17.6424 0.316351 17.7187C0.362557 17.7951 0.427632 17.8582 0.505315 17.9021C0.582998 17.9461 0.670674 17.9692 0.759909 17.9695H6.83991C6.93919 17.9718 7.0369 17.9445 7.12061 17.8911C7.20432 17.8376 7.27022 17.7605 7.30991 17.6695C8.60991 14.9895 7.81991 10.8495 5.51991 8.38946H5.50991Z" fill="url(#paint0_linear_33_1831)"/>
<path d="M8.71013 0.46953C7.62261 2.14225 6.98898 4.06914 6.87151 6.06085C6.75405 8.05256 7.15678 10.0406 8.04013 11.8295L11.0001 17.6695C11.0412 17.7575 11.106 17.8322 11.1873 17.8852C11.2686 17.9382 11.3631 17.9674 11.4601 17.9695H17.5401C17.6265 17.9627 17.7099 17.9353 17.7834 17.8895C17.8569 17.8436 17.9183 17.7808 17.9624 17.7063C18.0065 17.6318 18.0321 17.5478 18.0369 17.4613C18.0417 17.3749 18.0257 17.2885 17.9901 17.2095L9.60014 0.46953C9.55818 0.387629 9.49443 0.318896 9.41591 0.270901C9.3374 0.222906 9.24716 0.19751 9.15513 0.19751C9.06311 0.19751 8.97287 0.222906 8.89436 0.270901C8.81584 0.318896 8.75209 0.387629 8.71013 0.46953ZM137.07 9.76953L141.47 17.9695H145.4V3.32953H142.28V12.7795L141.1 10.0395L137.56 3.33953H132.63V17.9695H135.75V6.80953L137.07 9.76953ZM112.8 3.32953H109.4V17.9695H112.8V3.32953ZM105.46 13.6395C105.46 11.0795 104.1 9.87953 100.26 9.04953C98.1601 8.57953 97.6401 8.11953 97.6401 7.43953C97.6401 6.58953 98.4001 6.23953 99.7901 6.23953C101.49 6.23953 103.16 6.73953 104.74 7.45953V4.10953C103.222 3.41899 101.568 3.07729 99.9001 3.10953C96.1101 3.10953 94.1501 4.75953 94.1501 7.45953C94.1501 9.60953 95.1501 11.3295 99.0701 12.0895C101.41 12.5795 101.91 12.9595 101.91 13.7395C101.91 14.5195 101.41 14.9795 99.7501 14.9795C97.7601 14.9495 95.8101 14.4195 94.0701 13.4495V16.9695C95.2501 17.5395 96.8101 18.1895 99.7201 18.1895C103.82 18.1895 105.44 16.3595 105.44 13.6495M91.2701 13.6395C91.2701 11.0795 89.9301 9.87953 86.0801 9.04953C83.9701 8.57953 83.4501 8.11953 83.4501 7.43953C83.4501 6.58953 84.2101 6.23953 85.6001 6.23953C87.3001 6.23953 88.9701 6.73953 90.5501 7.45953V4.10953C89.0317 3.41899 87.3779 3.07729 85.7101 3.10953C81.9201 3.10953 79.9601 4.75953 79.9601 7.45953C79.9601 9.60953 80.9601 11.3295 84.8901 12.0895C87.2201 12.5795 87.7101 12.9595 87.7101 13.7395C87.7101 14.5195 87.2201 14.9795 85.5601 14.9795C83.5701 14.9495 81.6201 14.4195 79.8801 13.4495V16.9695C81.0701 17.5395 82.6201 18.1895 85.5301 18.1895C89.6301 18.1895 91.2501 16.3595 91.2501 13.6495M56.9301 14.8095V3.32953H53.5001V17.9695H60.5001L61.6101 14.8095H56.9301ZM46.8801 17.9695V6.49953H50.9301V3.32953H39.6601V6.49953H43.4501V17.9695H46.8801ZM34.6901 3.32953H30.1901L25.0901 17.9695H28.9901L29.7201 15.4995C31.5001 16.0295 33.4001 16.0295 35.1801 15.4995L35.9001 17.9695H39.8001L34.7001 3.32953H34.6901ZM32.4401 12.8695C31.8001 12.8695 31.1701 12.7695 30.5601 12.5995L32.4401 6.20953L34.3201 12.5995C33.7201 12.7795 33.0801 12.8695 32.4401 12.8695ZM72.5801 3.32953H68.1001L63.0001 17.9695H66.8901L67.6201 15.4995C69.4001 16.0295 71.2901 16.0295 73.0701 15.4995L73.8001 17.9695H77.7001L72.6001 3.32953H72.5801ZM70.3401 12.8695C69.7001 12.8695 69.0701 12.7695 68.4601 12.5995L70.3401 6.20953L72.2201 12.5995C71.6101 12.7795 70.9701 12.8695 70.3401 12.8695ZM125.08 3.32953H120.58L115.48 17.9695H119.38L120.1 15.4995C121.88 16.0295 123.77 16.0295 125.56 15.4995L126.28 17.9695H130.18L125.08 3.32953ZM122.83 12.8695C122.2 12.8695 121.56 12.7695 120.95 12.5995L122.83 6.20953L124.71 12.5995C124.11 12.7795 123.47 12.8695 122.83 12.8695Z" fill="black"/>
</g>
</g>
<defs>
<linearGradient id="paint0_linear_33_1831" x1="7.90991" y1="9.73946" x2="3.29991" y2="17.7195" gradientUnits="userSpaceOnUse">
<stop/>
<stop offset="0.92"/>
</linearGradient>
<clipPath id="clip0_33_1831">
<rect width="146" height="18" fill="white"/>
</clipPath>
</defs>
</svg>
