<svg width="137" height="18" viewBox="0 0 137 18" fill="none" xmlns="http://www.w3.org/2000/svg">
<g clip-path="url(#clip0_33_1839)">
<mask id="mask0_33_1839" style="mask-type:luminance" maskUnits="userSpaceOnUse" x="0" y="0" width="137" height="19">
<path d="M0.859863 0.189453H136.22V18.1895H0.859863V0.189453Z" fill="white"/>
</mask>
<g mask="url(#mask0_33_1839)">
<path d="M0.859863 15.8495H8.45986C12.0299 15.8495 14.1099 14.3495 14.1099 11.4295C14.1099 9.60945 13.0099 8.50945 11.4499 7.98945C12.1277 7.71166 12.703 7.23097 13.0969 6.6133C13.4908 5.99563 13.6839 5.27123 13.6499 4.53945C13.6499 2.26945 12.2299 0.709453 8.77986 0.709453H0.859863V15.8495ZM9.35986 5.31945C9.35986 6.35945 8.71986 6.87945 7.28986 6.87945H4.99986V3.75945H7.29986C8.72986 3.75945 9.37986 4.27945 9.37986 5.31945H9.35986ZM9.81986 11.1695C9.81986 12.2695 9.16986 12.7295 7.67986 12.7295H4.99986V9.54945H7.72986C9.15986 9.54945 9.80986 10.0695 9.80986 11.1695H9.81986ZM25.6799 15.8495H30.0299L24.7699 0.649453H19.2999L14.0399 15.8495H18.2599L19.0399 13.3795H24.9499L25.6699 15.8495H25.6799ZM21.9799 4.01945L23.8599 10.1995H20.0299L21.9799 4.01945ZM36.6599 16.1195C40.7599 16.1195 43.3599 14.1595 43.3599 11.1095C43.3599 8.63945 41.7299 7.33945 39.1299 6.80945L35.8199 6.16945C34.5199 5.90945 34.1199 5.51945 34.1199 4.79945C34.1199 4.08945 34.9099 3.43945 36.2699 3.43945C37.8299 3.43945 38.9399 4.08945 38.9999 5.44945H43.0999C43.0999 1.80945 40.0299 0.389453 36.2599 0.389453C32.6199 0.389453 29.9599 2.20945 29.9599 5.13945C29.9599 7.60945 31.5799 8.90945 34.1799 9.42945L37.4999 10.0795C38.7999 10.3395 39.1899 10.7295 39.1899 11.4395C39.1899 12.4195 38.2799 12.9395 36.7899 12.9395C35.0899 12.9395 33.8599 12.0895 33.7899 10.4695H29.6899C29.8299 14.0395 32.0999 16.1195 36.6499 16.1195H36.6599ZM44.5899 15.8495H48.7499V0.649453H44.5899V15.8495ZM54.1399 8.24945C54.1399 5.70945 55.5099 3.82945 57.7799 3.82945C59.6599 3.82945 60.8299 4.92945 61.0899 6.22945H65.4499C65.0499 2.26945 61.6799 0.319453 57.8499 0.319453C52.8499 0.319453 49.8499 3.43945 49.8499 8.17945C49.8499 12.9295 52.7799 16.0495 57.8499 16.0495C61.7499 16.0495 65.1199 14.1595 65.5099 10.1295H61.1599C60.8999 11.4995 59.7899 12.5295 57.8499 12.5295C55.5099 12.6695 54.1499 10.7795 54.1499 8.24945H54.1399ZM74.7399 0.189453H71.3599L64.8599 18.1895H68.2399L74.7399 0.189453ZM90.3999 8.24945C90.3999 3.94945 88.0599 0.649453 82.0799 0.649453H75.7199V15.8495H82.0799C88.0599 15.8495 90.3999 12.5395 90.3999 8.24945ZM86.1099 8.24945C86.1099 11.2395 84.4199 12.3495 82.0799 12.3495H79.9399V4.14945H82.0799C84.4199 4.14945 86.1099 5.24945 86.1099 8.24945ZM91.5099 15.8495H103.53V12.4095H95.5999V9.80945H102.55V6.48945H95.5999V4.14945H103.33V0.649453H91.5099V15.8495ZM117.82 5.96945C117.82 2.13945 115.35 0.709453 111.59 0.709453H105.02V15.9095H109.18V11.2395H111.65C115.35 11.2395 117.82 9.80945 117.82 5.96945ZM113.54 5.96945C113.54 7.46945 112.82 8.04945 111.13 8.04945H109.12V3.82945H111.13C112.82 3.82945 113.53 4.47945 113.53 5.96945H113.54ZM118.47 4.21945H123.28V15.8495H127.44V4.21945H132.24V0.639453H118.47V4.21945ZM133.1 15.5895C132.483 15.5895 131.88 15.4065 131.366 15.0636C130.853 14.7208 130.454 14.2335 130.217 13.6634C129.981 13.0933 129.919 12.466 130.04 11.8608C130.16 11.2556 130.457 10.6996 130.894 10.2633C131.33 9.82694 131.886 9.52979 132.491 9.4094C133.096 9.28902 133.724 9.3508 134.294 9.58695C134.864 9.82309 135.351 10.223 135.694 10.7361C136.037 11.2492 136.22 11.8524 136.22 12.4695C136.209 13.2937 135.877 14.0813 135.295 14.6642C134.712 15.247 133.924 15.5791 133.1 15.5895ZM133.1 9.86945C132.41 9.86945 131.749 10.1434 131.261 10.631C130.774 11.1186 130.5 11.7799 130.5 12.4695C130.5 13.159 130.774 13.8203 131.261 14.3079C131.749 14.7955 132.41 15.0695 133.1 15.0695C133.789 15.0695 134.451 14.7955 134.938 14.3079C135.426 13.8203 135.7 13.159 135.7 12.4695C135.7 11.7799 135.426 11.1186 134.938 10.631C134.451 10.1434 133.789 9.86945 133.1 9.86945Z" fill="black"/>
<path d="M133.42 11.3694H132.51V12.4094H133.41C133.74 12.4094 133.87 12.2094 133.87 11.8894C133.87 11.5594 133.67 11.3694 133.42 11.3694ZM133.35 10.8494C134.13 10.8494 134.52 11.1694 134.52 11.8894C134.52 12.2794 134.32 12.5994 133.94 12.7294L134.72 13.8994H133.94L133.22 12.8594H132.44V13.8994H131.73V10.8494H133.35Z" fill="black"/>
</g>
</g>
<defs>
<clipPath id="clip0_33_1839">
<rect width="137" height="18" fill="white"/>
</clipPath>
</defs>
</svg>
