<svg width="102" height="18" viewBox="0 0 102 18" fill="none" xmlns="http://www.w3.org/2000/svg">
<g clip-path="url(#clip0_33_1850)">
<mask id="mask0_33_1850" style="mask-type:luminance" maskUnits="userSpaceOnUse" x="0" y="0" width="102" height="19">
<path d="M0.839844 0.189453H101.61V18.1895H0.839844V0.189453Z" fill="white"/>
</mask>
<g mask="url(#mask0_33_1850)">
<path d="M21.18 5.21945C20.321 5.20324 19.4675 5.36014 18.6705 5.6808C17.8734 6.00146 17.1491 6.47931 16.5407 7.08588C15.9322 7.69245 15.4522 8.41532 15.129 9.21138C14.8059 10.0074 14.6464 10.8604 14.66 11.7195C14.6406 12.5787 14.7964 13.4328 15.1178 14.2299C15.4392 15.0269 15.9196 15.7502 16.5297 16.3555C17.1397 16.9609 17.8666 17.4357 18.6661 17.751C19.4656 18.0663 20.321 18.2155 21.18 18.1895C22.0431 18.2125 22.902 18.0606 23.7049 17.743C24.5078 17.4254 25.2382 16.9487 25.852 16.3414C26.4658 15.7341 26.9504 15.0089 27.2766 14.2095C27.6028 13.41 27.7638 12.5528 27.75 11.6895C27.764 10.8275 27.6028 9.97159 27.2763 9.17371C26.9498 8.37582 26.4647 7.65252 25.8504 7.04761C25.2362 6.4427 24.5055 5.96877 23.7027 5.65453C22.8999 5.34028 22.0417 5.19227 21.18 5.21945ZM21.2 15.5095C19.12 15.5095 17.6 13.8895 17.6 11.7095C17.6 9.50945 19.1 7.89945 21.18 7.89945C23.28 7.89945 24.82 9.53945 24.82 11.7195C24.82 13.8895 23.29 15.5095 21.2 15.5095ZM28.55 8.03945H30.37V17.9395H33.27V5.46945H28.55V8.04945V8.03945ZM7.33999 7.89945C8.05487 7.89022 8.75342 8.11339 9.33052 8.5354C9.90762 8.9574 10.3321 9.55542 10.54 10.2395H13.62C13.3601 8.78715 12.5826 7.47826 11.4316 6.55526C10.2806 5.63225 8.83408 5.15768 7.35999 5.21945C6.50101 5.20324 5.64755 5.36014 4.85049 5.6808C4.05344 6.00146 3.3291 6.47931 2.72067 7.08588C2.11223 7.69245 1.63215 8.41532 1.30904 9.21138C0.985935 10.0074 0.826415 10.8604 0.839992 11.7195C0.820591 12.5787 0.976356 13.4328 1.2978 14.2299C1.61923 15.0269 2.09961 15.7502 2.70965 16.3555C3.3197 16.9609 4.04662 17.4357 4.84612 17.751C5.64563 18.0663 6.50096 18.2155 7.35999 18.1895C8.83185 18.2364 10.2714 17.7519 11.4154 16.8246C12.5594 15.8973 13.3313 14.5892 13.59 13.1395H10.54C10.3413 13.8275 9.92297 14.4316 9.34877 14.8595C8.77457 15.2875 8.07609 15.5157 7.35999 15.5095C5.25999 15.5095 3.77999 13.8895 3.77999 11.7095C3.77999 9.50945 5.22999 7.89945 7.33999 7.89945ZM83.82 10.4995L81.68 10.1995C80.66 10.0495 79.94 9.70945 79.94 8.90945C79.94 8.03945 80.88 7.60945 82.17 7.60945C83.57 7.60945 84.47 8.20945 84.67 9.20945H87.47C87.16 6.68945 85.22 5.20945 82.24 5.20945C79.16 5.20945 77.13 6.78945 77.13 9.00945C77.13 11.1395 78.46 12.3695 81.15 12.7495L83.28 13.0695C84.32 13.2095 84.91 13.6195 84.91 14.3995C84.91 15.3895 83.89 15.7995 82.48 15.7995C80.76 15.7995 79.79 15.0995 79.65 14.0295H76.79C77.05 16.4795 78.97 18.1895 82.46 18.1895C85.63 18.1895 87.74 16.7395 87.74 14.2495C87.74 12.0295 86.22 10.8695 83.82 10.5095V10.4995ZM31.82 0.319453C31.5744 0.309829 31.3294 0.35061 31.1002 0.439282C30.8709 0.527954 30.6623 0.662637 30.4871 0.835031C30.3119 1.00742 30.1738 1.21387 30.0814 1.44166C29.9891 1.66944 29.9443 1.91372 29.95 2.15945C29.95 3.21945 30.75 3.98945 31.82 3.98945C32.0647 3.99902 32.3089 3.95853 32.5374 3.87046C32.766 3.7824 32.9742 3.64862 33.1492 3.4773C33.3243 3.30599 33.4625 3.10075 33.5555 2.87415C33.6485 2.64755 33.6943 2.40435 33.69 2.15945C33.697 1.91289 33.6533 1.66751 33.5616 1.43855C33.4698 1.20959 33.332 1.00192 33.1567 0.828446C32.9813 0.65497 32.7722 0.519385 32.5422 0.430106C32.3123 0.340828 32.0665 0.29976 31.82 0.309453V0.319453ZM74.51 9.73945C74.51 7.03945 72.86 5.22945 69.37 5.22945C66.07 5.22945 64.23 6.88945 63.87 9.44945H66.75C66.9 8.45945 67.67 7.64945 69.32 7.64945C70.8 7.64945 71.52 8.28945 71.52 9.08945C71.52 10.1295 70.19 10.3895 68.54 10.5695C66.31 10.8095 63.55 11.5795 63.55 14.4795C63.55 16.7295 65.22 18.1795 67.89 18.1795C69.98 18.1795 71.29 17.3095 71.94 15.9295C72.04 17.1595 72.96 17.9595 74.24 17.9595H75.94V15.3695H74.5V9.72945L74.51 9.73945ZM71.65 12.8795C71.65 14.5495 70.19 15.7795 68.42 15.7795C67.33 15.7795 66.42 15.3295 66.42 14.3595C66.42 13.1295 67.89 12.7895 69.25 12.6395C70.55 12.5195 71.28 12.2395 71.65 11.6795V12.8795ZM56.2 5.21945C54.57 5.21945 53.21 5.88945 52.25 7.01945V0.189453H49.34V17.9495H52.2V16.3095C52.6801 16.9061 53.2898 17.3855 53.9829 17.7113C54.676 18.0371 55.4342 18.2006 56.2 18.1895C59.69 18.1895 62.33 15.4395 62.33 11.7195C62.33 7.98945 59.63 5.21945 56.2 5.21945ZM55.76 15.5095C53.68 15.5095 52.15 13.8895 52.15 11.7095C52.15 9.53945 53.7 7.89945 55.78 7.89945C57.89 7.89945 59.38 9.51945 59.38 11.7195C59.38 13.8895 57.84 15.5095 55.76 15.5095ZM42.39 5.20945C40.49 5.20945 39.26 5.98945 38.53 7.07945V5.45945H35.65V17.9495H38.55V11.1495C38.55 9.24945 39.77 7.89945 41.56 7.89945C43.24 7.89945 44.28 9.07945 44.28 10.7995V17.9495H47.18V10.5795C47.18 7.43945 45.57 5.21945 42.38 5.21945L42.39 5.20945ZM101.61 11.3095C101.638 10.4974 101.498 9.68821 101.199 8.93269C100.9 8.17717 100.448 7.49158 99.8718 6.91888C99.2954 6.34619 98.6068 5.89874 97.8494 5.60459C97.0919 5.31043 96.2819 5.17591 95.47 5.20945C94.6121 5.18873 93.759 5.34292 92.9627 5.66263C92.1664 5.98234 91.4435 6.46087 90.8381 7.06904C90.2328 7.67722 89.7576 8.40231 89.4416 9.2001C89.1255 9.9979 88.9753 10.8517 89 11.7095C88.9763 12.5703 89.1291 13.4268 89.4489 14.2264C89.7687 15.0259 90.2487 15.7515 90.8595 16.3586C91.4703 16.9656 92.1989 17.4412 93.0004 17.7561C93.8019 18.071 94.6593 18.2184 95.52 18.1895C98.55 18.1895 100.92 16.3995 101.53 13.8695H98.5C98.07 14.9695 97 15.6095 95.57 15.6095C93.7 15.6095 92.3 14.4495 91.98 12.4095H101.61V11.3095ZM92.15 10.3395C92.3067 9.59188 92.7209 8.92307 93.3204 8.44971C93.9198 7.97636 94.6665 7.72852 95.43 7.74945C97.07 7.74945 98.33 8.68945 98.63 10.3395H92.15Z" fill="black"/>
</g>
</g>
<defs>
<clipPath id="clip0_33_1850">
<rect width="102" height="18" fill="white"/>
</clipPath>
</defs>
</svg>
