<svg width="133" height="18" viewBox="0 0 133 18" fill="none" xmlns="http://www.w3.org/2000/svg">
<path d="M5.45018 15.14H8.51018C10.8702 15.14 12.0602 14.36 12.0602 12.85C12.0602 11.38 10.7902 10.57 8.32018 10.57H5.45018V15.14ZM5.45018 4.12995V8.36995H8.14018C10.1502 8.36995 11.2002 7.61995 11.2002 6.24995C11.2002 4.84995 10.1202 4.12995 8.10018 4.12995H5.46018H5.45018ZM1.18018 17.42V15.14H2.98018V4.12995H1.18018V1.83995H8.38018C11.6802 1.83995 13.6902 3.36995 13.6902 6.03995C13.7073 6.7655 13.4939 7.47779 13.0806 8.07437C12.6674 8.67095 12.0755 9.12106 11.3902 9.35995C13.2402 9.86995 14.5502 11.19 14.5502 12.99C14.5502 15.83 12.3502 17.42 8.75018 17.42H1.18018ZM27.6002 9.29995C27.3402 8.39995 26.6602 7.85995 25.7802 7.85995C23.7102 7.85995 21.7502 9.38995 21.7502 12.18V15.14H25.7302V17.42H16.8602V15.14H19.3902V8.25995H17.4002V5.97995H21.7202V7.89995C22.1367 7.17032 22.7462 6.56961 23.4819 6.16385C24.2176 5.75809 25.0508 5.56298 25.8902 5.59995C28.0902 5.59995 29.4602 6.85995 29.8602 8.64995L27.6002 9.29995ZM39.6902 12.8C38.7451 12.4857 37.7561 12.3237 36.7602 12.32C35.2602 12.32 33.8102 12.8 33.8102 14.17C33.8102 15.19 34.7202 15.67 35.9802 15.67C37.7302 15.67 39.6802 14.73 39.6802 13.12V12.8H39.6902ZM39.6902 10.76V10.11C39.6902 8.50995 38.4002 7.82995 37.0002 7.82995C35.6902 7.82995 34.5602 8.36995 33.6502 9.19995L32.0902 7.50995C33.1602 6.50995 34.6902 5.60995 37.0002 5.60995C39.8802 5.60995 42.1002 7.12995 42.1002 10.03V15.13H43.7702V17.42H39.6902V16.2C39.0702 17.2 37.4102 17.78 35.7702 17.78C33.4002 17.78 31.3702 16.58 31.3702 14.18C31.3702 11.37 34.1302 10.29 36.6502 10.29C37.8902 10.29 38.9102 10.53 39.6902 10.75V10.76ZM53.7002 3.69995H51.0502V0.199951H53.7102V3.69995H53.7002ZM58.1102 15.14V17.42H46.5602V15.14H51.3402V8.25995H47.7002V5.97995H53.7202V15.14H58.1202H58.1102ZM60.9602 15.14H62.7002V8.25995H61.0602V5.97995H65.0402V7.45995C65.7402 6.32995 67.1902 5.59995 68.9602 5.59995C71.5102 5.59995 73.3402 7.20995 73.3402 9.81995V15.14H75.0802V17.42H69.1502V15.14H70.9702V10.46C70.9702 8.47995 69.7702 7.90995 68.6702 7.90995C66.8702 7.90995 65.0702 9.25995 65.0702 11.32V15.14H66.8902V17.42H60.9602V15.14ZM78.3302 8.25995H75.3502V5.97995H78.3302V1.83995H80.6902V5.97995H86.2502V8.25995H80.7002V13.06C80.7002 14.84 81.9402 15.56 83.3602 15.56C84.7002 15.56 85.8302 14.81 86.6602 13.98L88.2502 15.62C87.6337 16.3054 86.8795 16.853 86.0368 17.227C85.1942 17.6009 84.2821 17.7927 83.3602 17.79C80.4902 17.79 78.3402 16.21 78.3402 13.15V8.25995H78.3302ZM101.13 9.29995C100.86 8.39995 100.19 7.85995 99.3002 7.85995C97.2402 7.85995 95.2802 9.38995 95.2802 12.18V15.14H99.2502V17.42H90.3902V15.14H92.9102V8.25995H90.9302V5.97995H95.2502V7.89995C95.6659 7.17187 96.2739 6.57218 97.0076 6.16652C97.7413 5.76085 98.5725 5.56485 99.4102 5.59995C101.61 5.59995 102.98 6.85995 103.39 8.64995L101.13 9.29995ZM107.5 10.52H114.53C114.363 9.74123 113.932 9.04387 113.311 8.54494C112.69 8.04601 111.917 7.7759 111.12 7.77995C110.293 7.75108 109.48 8.00758 108.819 8.50644C108.159 9.0053 107.689 9.7162 107.49 10.52H107.5ZM117.03 15.67C115.84 16.91 113.75 17.79 111.41 17.79C107.57 17.79 104.89 15.22 104.89 11.69C104.89 8.18995 107.49 5.59995 111.12 5.59995C114.72 5.59995 117.24 8.36995 117.24 12.13V12.53H107.39C107.79 14.43 109.37 15.59 111.44 15.59C113.16 15.59 114.64 14.89 115.44 14.01L117.03 15.67ZM122.18 10.52H129.22C129.053 9.74123 128.622 9.04387 128.001 8.54494C127.38 8.04601 126.607 7.7759 125.81 7.77995C124.983 7.75108 124.17 8.00758 123.509 8.50644C122.849 9.0053 122.379 9.7162 122.18 10.52ZM131.71 15.67C130.53 16.91 128.44 17.79 126.11 17.79C122.26 17.79 119.58 15.22 119.58 11.69C119.58 8.18995 122.18 5.59995 125.81 5.59995C129.41 5.59995 131.93 8.36995 131.93 12.13V12.53H122.07C122.47 14.43 124.07 15.59 126.13 15.59C127.85 15.59 129.33 14.89 130.13 14.01L131.72 15.67H131.71Z" fill="black"/>
</svg>
