<svg width="75" height="18" viewBox="0 0 75 18" fill="none" xmlns="http://www.w3.org/2000/svg">
<g clip-path="url(#clip0_33_1857)">
<mask id="mask0_33_1857" style="mask-type:luminance" maskUnits="userSpaceOnUse" x="0" y="0" width="75" height="19">
<path d="M0.399902 0.189453H74.1999V18.1895H0.399902V0.189453Z" fill="white"/>
</mask>
<g mask="url(#mask0_33_1857)">
<path fill-rule="evenodd" clip-rule="evenodd" d="M73.2999 12.6496C73.0699 12.4896 72.8799 12.4696 72.7299 12.7796C70.1699 18.3296 65.8499 15.5596 66.2799 15.7996C67.2399 15.3596 69.7599 13.3496 69.3799 10.5496C69.1499 8.84956 67.6799 8.08956 66.1299 8.35956C63.4099 8.83956 62.4299 11.7596 62.9299 14.3596C63.0143 14.7646 63.1487 15.1576 63.3299 15.5296C60.2699 18.0296 59.0499 13.2996 58.9099 12.7296C58.9099 12.6996 61.2799 10.7296 61.9399 6.00956C62.6399 1.06956 61.0599 0.169565 59.4399 0.199565C56.4599 0.249565 55.6599 6.47956 56.7399 11.6696C56.6499 11.6896 56.2199 11.9296 55.5399 11.9496C55.0599 10.4196 52.9699 9.06956 52.4299 9.58956C51.0699 10.8896 52.7599 13.4296 53.9599 13.6196C53.2399 18.0396 48.7599 16.9496 49.5899 11.4196C51.0399 8.69956 52.1599 4.65956 51.9599 2.22956C51.8899 1.36956 51.2499 0.219565 49.8099 0.269565C47.0399 0.379565 46.7399 6.60956 47.0599 11.0296C47.0499 10.9296 46.8899 11.5696 45.7599 11.8896C45.4899 10.3996 43.0899 8.88956 42.5199 9.61957C41.4599 10.9696 43.2999 13.3696 44.1599 13.5396C43.4499 17.9496 38.9599 16.8596 39.7899 11.3196C41.2599 8.61957 42.3699 4.58956 42.1699 2.14956C42.0999 1.28956 41.4699 0.139565 40.0199 0.189565C37.2499 0.299565 36.9499 6.52956 37.2699 10.9496C37.2599 10.8496 37.0999 11.5096 35.9199 11.8296C35.8799 9.88956 33.4699 9.00956 32.8899 9.62956C31.8599 10.7296 33.1299 12.9896 34.2899 13.5296C33.5899 17.9496 29.0899 16.8596 29.9299 11.3296C31.3899 8.61957 32.4999 4.57956 32.2999 2.13956C32.2399 1.28956 31.5999 0.139565 30.1599 0.189565C27.3899 0.299565 27.1599 6.83956 27.4899 11.2696C26.5799 15.1796 23.5099 20.0696 23.9099 10.2696C23.9499 9.58956 23.9899 9.32957 23.6499 9.06956C23.3899 8.86957 22.8099 8.96956 22.4999 8.96956C22.1099 8.98956 21.9999 9.21956 21.9299 9.56956C21.7299 10.4396 21.6899 11.2996 21.6599 12.4696C21.6499 13.0196 21.5999 13.2696 21.3899 14.0196C21.1699 14.7696 19.9799 16.1296 19.3199 15.9096C18.3999 15.5896 18.6999 13.0096 18.8799 11.2496C19.0199 9.84957 18.5599 9.21956 17.3999 8.98956C16.7099 8.84956 16.2999 8.87956 15.5799 8.64956C14.9099 8.42956 14.7599 7.15956 13.3199 7.57956C12.5399 7.81956 13.0399 9.47956 12.8499 10.7196C11.9199 16.7896 9.9899 16.9496 9.0999 14.0096C13.1299 4.11956 10.2499 0.219565 8.5799 0.219565C6.8299 0.219565 4.8299 1.41956 5.6799 9.13956C5.2599 9.02956 5.1399 8.95957 4.6799 8.95957C2.1399 8.95957 0.399902 11.0196 0.399902 13.5596C0.399902 16.0996 2.1399 18.1596 4.6899 18.1596C6.1899 18.1596 7.2499 17.4796 8.0499 16.4296C8.5699 17.1696 9.2099 18.1796 10.3699 18.1296C13.8399 17.9996 14.8399 10.8896 14.9699 10.4896C15.3299 10.5396 15.6899 10.6596 16.0299 10.7096C16.5899 10.7996 16.6399 11.0296 16.6299 11.5896C16.4699 16.4296 17.3599 18.1196 19.3899 18.1196C20.5099 18.1196 21.5199 17.0096 22.2099 16.2196C22.7299 17.2896 23.5499 18.0896 24.6599 18.1196C27.3399 18.1796 28.3699 13.9196 28.2799 14.4696C28.1999 14.9096 29.1399 18.0896 31.9099 18.0996C35.3199 18.1196 35.9599 14.3596 36.0299 13.7296C36.0299 13.6096 36.0499 13.6296 36.0299 13.7296V13.7696C37.1199 13.5696 37.6799 12.9896 37.6799 12.9896C37.6799 12.9896 38.5499 18.1696 41.7699 18.1096C45.1199 18.0496 45.7499 14.6496 45.8299 13.9896C45.8399 13.8396 45.8499 13.8496 45.8299 13.9896V14.0096C47.1299 13.5396 47.4599 13.0696 47.4599 13.0696C47.4599 13.0696 48.1599 18.1396 51.5599 18.1896C54.5899 18.2296 55.7099 15.1196 55.7199 13.8196C56.2299 13.8196 57.1799 13.5196 57.1499 13.4996C57.1499 13.4996 58.2599 17.9296 61.3699 18.1596C62.8199 18.2596 63.9199 17.3396 64.5399 16.9096C65.9999 18.1096 70.8799 19.6096 73.9599 14.3896C74.3999 13.6496 73.4599 12.7696 73.2899 12.6496H73.2999ZM4.5599 16.4496C3.0699 16.4496 2.1199 15.0596 2.1199 13.5796C2.1199 12.0996 2.9999 10.7296 4.4799 10.7296C5.1499 10.7296 5.5199 10.7996 6.0499 11.2496C6.1499 11.6196 6.4099 12.4796 6.5499 12.8796C6.7199 13.3996 6.9299 13.8396 7.1399 14.3196C6.8299 15.5696 5.8499 16.4396 4.5599 16.4396V16.4496ZM8.1799 11.2896C8.1199 11.1896 8.1399 11.2496 8.0699 11.1596C7.7999 10.4196 7.2699 8.75956 7.2099 6.87956C7.1399 4.75956 7.4899 2.25956 8.5399 2.25956C9.2399 2.25956 9.9999 7.31956 8.1799 11.2896ZM29.1299 9.08956C28.9699 7.81956 28.9599 2.18956 30.3099 2.34956C31.0599 2.64956 29.8299 7.94956 29.1299 9.07957V9.08956ZM38.9999 9.08956C38.8299 7.81956 38.8299 2.18956 40.1699 2.34956C40.9199 2.64956 39.6999 7.94956 38.9999 9.07957V9.08956ZM48.7899 9.15956C48.6199 7.89956 48.6099 2.26956 49.9599 2.42956C50.7099 2.71956 49.4899 8.02956 48.7899 9.15956ZM59.5899 2.00956C60.8199 1.87956 60.7699 7.27956 58.2899 10.6796C57.9699 9.44956 57.4899 2.43956 59.5899 2.00956ZM64.7899 13.6196C64.3899 11.6196 65.4099 10.2996 66.4699 10.1596C66.8399 10.0996 67.3699 10.3396 67.4699 10.7896C67.6499 11.6296 67.4499 12.8896 65.0799 14.4696C65.0899 14.4696 64.8699 14.0696 64.7799 13.6196H64.7899ZM22.8999 7.43956C23.1008 7.43956 23.2998 7.39999 23.4854 7.3231C23.671 7.24621 23.8397 7.13351 23.9818 6.99144C24.1238 6.84936 24.2365 6.6807 24.3134 6.49507C24.3903 6.30944 24.4299 6.11049 24.4299 5.90956C24.4299 5.70864 24.3903 5.50969 24.3134 5.32406C24.2365 5.13843 24.1238 4.96977 23.9818 4.82769C23.8397 4.68562 23.671 4.57292 23.4854 4.49603C23.2998 4.41914 23.1008 4.37956 22.8999 4.37956C22.4941 4.37956 22.105 4.54076 21.818 4.82769C21.5311 5.11462 21.3699 5.50378 21.3699 5.90956C21.3699 6.31535 21.5311 6.70451 21.818 6.99144C22.105 7.27837 22.4941 7.43956 22.8999 7.43956Z" fill="black"/>
</g>
</g>
<defs>
<clipPath id="clip0_33_1857">
<rect width="75" height="18" fill="white"/>
</clipPath>
</defs>
</svg>
