<svg width="88" height="88" viewBox="0 0 88 88" fill="none" xmlns="http://www.w3.org/2000/svg">
<mask id="mask0_13_6138" style="mask-type:luminance" maskUnits="userSpaceOnUse" x="6" y="0" width="76" height="88">
<path d="M81.0457 0H6.75342V87.8H81.0457V0Z" fill="white"/>
</mask>
<g mask="url(#mask0_13_6138)">
<path d="M24.9332 50.0027L9.3073 28.657C7.18996 25.8009 7.87705 21.7364 10.7332 19.6191C11.1157 19.3065 11.5519 19.1185 11.9882 18.9306C14.7303 17.7491 17.9664 18.5714 19.7711 21.045L34.8609 41.661L30.2409 16.5338C29.6826 13.5231 31.3699 10.5794 34.0497 9.42474C36.7294 8.27008 34.9221 9.04881 35.4121 8.98548C38.9127 8.36385 42.3387 10.656 42.9604 14.1566L47.0757 36.3979C47.6893 35.7641 48.4189 35.228 49.2291 34.8789C50.4755 34.3419 51.8207 34.2056 53.1132 34.4615C54.4058 34.7174 55.5832 35.3923 56.5028 36.3261C56.7952 35.4612 57.2659 34.6672 57.8795 34.0334C58.4662 33.3373 59.2581 32.7744 60.1306 32.3984C63.4336 30.9752 67.2057 32.5272 68.6021 35.7679L72.2272 44.1811C77.4989 56.2445 71.7886 70.6014 59.5114 75.8913L58.265 76.4284C52.0953 79.0868 45.4746 78.9838 39.7052 76.7407C33.9358 74.4977 29.0531 70.0252 26.4216 63.9178C23.79 57.8104 24.0064 54.5399 24.844 49.9672L24.9332 50.0027Z" fill="#FFCADC"/>
<path d="M24.9332 50.0027L9.3073 28.657C7.18996 25.8009 7.87705 21.7364 10.7332 19.6191C11.1157 19.3065 11.5519 19.1185 11.9882 18.9306C14.7303 17.7491 17.9664 18.5714 19.7711 21.045L34.8609 41.661L30.2409 16.5338C29.6826 13.5231 31.3699 10.5794 34.0497 9.42474C36.7294 8.27008 34.9221 9.04881 35.4121 8.98548C38.9127 8.36385 42.3387 10.656 42.9604 14.1566L47.0757 36.3979C47.6893 35.7641 48.4189 35.228 49.2291 34.8789C50.4755 34.3419 51.8207 34.2056 53.1132 34.4615C54.4058 34.7174 55.5832 35.3923 56.5028 36.3261C56.7952 35.4612 57.2659 34.6673 57.8795 34.0334C58.4662 33.3373 59.2581 32.7744 60.1306 32.3984C63.4336 30.9752 67.2057 32.5272 68.6021 35.7679L72.2272 44.1811C77.4989 56.2445 71.7886 70.6014 59.5114 75.8913L58.265 76.4284C52.0953 79.0868 45.4746 78.9838 39.7052 76.7407C33.9358 74.4977 29.0531 70.0252 26.4216 63.9178C23.79 57.8104 24.0064 54.5399 24.844 49.9672L24.9332 50.0027Z" stroke="#001405" stroke-width="1.35714" stroke-linecap="round" stroke-linejoin="round"/>
<path d="M68.1386 35.8936C66.7423 32.653 63.0326 31.0743 59.8544 32.4437C56.6761 33.8132 55.2489 37.5314 56.672 40.8343L58.8738 45.9444C60.2701 49.185 63.9798 50.7637 67.158 49.3943C70.3363 48.0249 71.7635 44.3066 70.3404 41.0037L68.1386 35.8936Z" stroke="#001405" stroke-width="1.35714" stroke-linecap="round" stroke-linejoin="round"/>
<path d="M57.2367 38.3741C55.8404 35.1335 52.1307 33.5547 48.9525 34.9242C45.7743 36.2936 44.347 40.0119 45.7701 43.3148L47.972 48.4249C49.3683 51.6654 53.0779 53.2442 56.2562 51.8748C59.4344 50.5053 60.8617 46.787 59.4386 43.4842L57.2367 38.3741Z" fill="#FFCADC"/>
<path d="M57.2367 38.3741C55.8404 35.1335 52.1307 33.5547 48.9525 34.9242C45.7743 36.2936 44.347 40.0119 45.7701 43.3148L47.972 48.4249C49.3683 51.6654 53.0779 53.2442 56.2562 51.8748C59.4344 50.5053 60.8617 46.787 59.4386 43.4842L57.2367 38.3741Z" stroke="#001405" stroke-width="1.35714" stroke-linecap="round" stroke-linejoin="round"/>
<path d="M36.9399 56.9471L47.8456 52.2481C50.7123 51.0129 52.0514 47.7759 50.8431 44.9716C49.6348 42.1673 46.3 40.9442 43.4957 42.1525L31.219 47.4423C29.1001 48.3552 27.8031 50.318 27.7448 52.412C27.7448 52.412 27.5178 54.8003 28.147 57.6325" fill="#FFCADC"/>
<path d="M36.9399 56.9471L47.8456 52.2481C50.7123 51.0129 52.0514 47.7759 50.8431 44.9716C49.6348 42.1673 46.3 40.9442 43.4957 42.1525L31.219 47.4423C29.1001 48.3552 27.8031 50.318 27.7448 52.412C27.7448 52.412 27.5178 54.8003 28.147 57.6325" stroke="#001405" stroke-width="1.35714" stroke-linecap="round" stroke-linejoin="round"/>
</g>
</svg>
